<svg width="17" height="16" viewBox="0 0 17 16" fill="none" xmlns="http://www.w3.org/2000/svg">
<path d="M14.5627 11.0715C14.5627 11.2322 14.5329 11.442 14.4734 11.7009C14.4139 11.9598 14.3514 12.1637 14.2859 12.3125C14.1609 12.6101 13.7978 12.9256 13.1966 13.259C12.6371 13.5625 12.0835 13.7143 11.5359 13.7143C11.3752 13.7143 11.2175 13.7039 11.0627 13.6831C10.9079 13.6622 10.7368 13.625 10.5493 13.5715C10.3618 13.5179 10.2219 13.4747 10.1297 13.442C10.0374 13.4093 9.87222 13.3482 9.63413 13.259C9.39603 13.1697 9.2502 13.1161 9.19663 13.0982C8.6133 12.8899 8.09246 12.6429 7.63413 12.3572C6.87818 11.8869 6.09246 11.2441 5.27699 10.4286C4.46151 9.61312 3.81865 8.82741 3.34841 8.07146C3.0627 7.61312 2.81568 7.09229 2.60734 6.50896C2.58949 6.45538 2.53591 6.30955 2.44663 6.07146C2.35734 5.83336 2.29633 5.66818 2.26359 5.57592C2.23086 5.48366 2.1877 5.34378 2.13413 5.15628C2.08056 4.96878 2.04336 4.79765 2.02252 4.64288C2.00169 4.48812 1.99127 4.33038 1.99127 4.16967C1.99127 3.62205 2.14306 3.06848 2.44663 2.50895C2.77996 1.90776 3.09544 1.54467 3.39306 1.41967C3.54187 1.35419 3.74574 1.29169 4.00466 1.23217C4.26359 1.17265 4.47341 1.14288 4.63413 1.14288C4.71746 1.14288 4.77996 1.15181 4.82163 1.16967C4.92877 1.20538 5.08651 1.43157 5.29484 1.84824C5.36032 1.96134 5.44961 2.12205 5.5627 2.33038C5.6758 2.53872 5.77996 2.7277 5.8752 2.89735C5.97044 3.06699 6.0627 3.22622 6.15199 3.37503C6.16984 3.39884 6.22193 3.47324 6.30824 3.59824C6.39455 3.72324 6.45853 3.8289 6.5002 3.9152C6.54187 4.00151 6.5627 4.08634 6.5627 4.16967C6.5627 4.28872 6.47788 4.43753 6.30824 4.6161C6.13859 4.79467 5.95407 4.95836 5.75466 5.10717C5.55526 5.25598 5.37074 5.41372 5.20109 5.58038C5.03145 5.74705 4.94663 5.88396 4.94663 5.9911C4.94663 6.04467 4.96151 6.11163 4.99127 6.19199C5.02103 6.27235 5.04633 6.33336 5.06716 6.37503C5.088 6.41669 5.12966 6.48812 5.19216 6.58931C5.25466 6.6905 5.28889 6.74705 5.29484 6.75896C5.74722 7.57443 6.26508 8.27384 6.84841 8.85717C7.43175 9.4405 8.13115 9.95836 8.94663 10.4107C8.95853 10.4167 9.01508 10.4509 9.11627 10.5134C9.21746 10.5759 9.28889 10.6176 9.33056 10.6384C9.37222 10.6593 9.43324 10.6846 9.51359 10.7143C9.59395 10.7441 9.66092 10.759 9.71449 10.759C9.82163 10.759 9.95853 10.6741 10.1252 10.5045C10.2919 10.3348 10.4496 10.1503 10.5984 9.95092C10.7472 9.75151 10.9109 9.56699 11.0895 9.39735C11.2681 9.22771 11.4169 9.14288 11.5359 9.14288C11.6192 9.14288 11.7041 9.16372 11.7904 9.20538C11.8767 9.24705 11.9823 9.31104 12.1073 9.39735C12.2323 9.48366 12.3067 9.53574 12.3306 9.5536C12.4794 9.64288 12.6386 9.73515 12.8082 9.83038C12.9779 9.92562 13.1669 10.0298 13.3752 10.1429C13.5835 10.256 13.7442 10.3453 13.8573 10.4107C14.274 10.6191 14.5002 10.7768 14.5359 10.884C14.5538 10.9256 14.5627 10.9881 14.5627 11.0715Z" fill="#101010"/>
</svg>
