<svg width="17" height="16" viewBox="0 0 17 16" fill="none" xmlns="http://www.w3.org/2000/svg">
<g clip-path="url(#clip0_1_443)">
<path d="M15.5841 5.32146C15.5841 4.83931 15.5201 4.41372 15.3922 4.04467C15.2642 3.67562 15.1005 3.38247 14.9011 3.1652C14.7017 2.94794 14.4591 2.77086 14.1734 2.63395C13.8877 2.49705 13.6079 2.40479 13.3341 2.35717C13.0603 2.30955 12.7687 2.28574 12.4591 2.28574C12.1496 2.28574 11.8163 2.36163 11.4591 2.51342C11.102 2.6652 10.7731 2.85568 10.4725 3.08485C10.1719 3.31401 9.91449 3.5283 9.7002 3.7277C9.48592 3.92711 9.30735 4.11015 9.16449 4.27681C9.05735 4.40776 8.91151 4.47324 8.72699 4.47324C8.54247 4.47324 8.39663 4.40776 8.28949 4.27681C8.14663 4.11015 7.96806 3.92711 7.75378 3.7277C7.53949 3.5283 7.28205 3.31401 6.98145 3.08485C6.68086 2.85568 6.35199 2.6652 5.99485 2.51342C5.6377 2.36163 5.30437 2.28574 4.99485 2.28574C4.68532 2.28574 4.39366 2.30955 4.11985 2.35717C3.84604 2.40479 3.56628 2.49705 3.28056 2.63395C2.99485 2.77086 2.75229 2.94794 2.55288 3.1652C2.35348 3.38247 2.18979 3.67562 2.06181 4.04467C1.93384 4.41372 1.86985 4.83931 1.86985 5.32146C1.86985 6.32146 2.42639 7.378 3.53949 8.4911L8.72699 13.4911L13.9056 8.50003C15.0246 7.38098 15.5841 6.32146 15.5841 5.32146ZM16.727 5.32146C16.727 6.63693 16.0454 7.97622 14.6823 9.33931L9.11985 14.6965C9.0127 14.8036 8.88175 14.8572 8.72699 14.8572C8.57223 14.8572 8.44128 14.8036 8.33413 14.6965L2.7627 9.32146C2.70318 9.27384 2.62134 9.19646 2.51717 9.08931C2.413 8.98217 2.24782 8.78723 2.02163 8.50449C1.79544 8.22175 1.59306 7.93157 1.41449 7.63396C1.23592 7.33634 1.07669 6.97622 0.936811 6.5536C0.79693 6.13098 0.72699 5.72026 0.72699 5.32146C0.72699 4.01193 1.10497 2.98812 1.86092 2.25003C2.61687 1.51193 3.66151 1.14288 4.99485 1.14288C5.36389 1.14288 5.74038 1.20687 6.12431 1.33485C6.50824 1.46282 6.86538 1.63544 7.19574 1.8527C7.5261 2.06997 7.81032 2.27384 8.04842 2.46431C8.28651 2.65479 8.5127 2.85717 8.72699 3.07145C8.94128 2.85717 9.16747 2.65479 9.40556 2.46431C9.64366 2.27384 9.92788 2.06997 10.2582 1.8527C10.5886 1.63544 10.9457 1.46282 11.3297 1.33485C11.7136 1.20687 12.0901 1.14288 12.4591 1.14288C13.7925 1.14288 14.8371 1.51193 15.5931 2.25003C16.349 2.98812 16.727 4.01193 16.727 5.32146Z" fill="#101010"/>
</g>
<defs>
<clipPath id="clip0_1_443">
<rect width="16" height="16" fill="white" transform="translate(0.72699)"/>
</clipPath>
</defs>
</svg>
