<svg width="30" height="30" viewBox="0 0 30 30" fill="none" xmlns="http://www.w3.org/2000/svg">
<path d="M15.007 2.09998C7.85696 2.09998 2.10696 7.84998 2.10696 15C2.10696 22.15 7.85696 27.9 15.007 27.9C22.157 27.9 27.907 22.15 27.907 15C27.907 7.84998 22.157 2.09998 15.007 2.09998ZM15.357 4.79998C16.657 4.79998 17.757 5.84998 17.757 7.19998C17.757 8.49998 16.707 9.59998 15.357 9.59998C14.057 9.59998 12.957 8.54998 12.957 7.19998C12.957 5.89998 14.057 4.79998 15.357 4.79998ZM23.107 11.2L18.007 12.05C17.657 12.1 17.407 12.4 17.407 12.75V13.7C17.407 14.7 17.457 15.7 17.707 16.7L19.357 23.75C19.607 24.65 18.857 25.2 18.157 25.15C17.707 25.15 17.307 24.85 17.157 24.3L15.207 17.65C15.157 17.55 15.057 17.45 14.957 17.45C14.857 17.45 14.757 17.5 14.707 17.65L12.757 24.3C12.607 24.85 12.207 25.1 11.757 25.15C11.057 25.2 10.307 24.65 10.557 23.75L12.207 16.7C12.407 15.7 12.507 14.7 12.507 13.7V12.75C12.507 12.4 12.257 12.1 11.907 12.05L6.80696 11.2C5.65696 11 5.95696 9.34998 7.10696 9.54998C7.10696 9.54998 12.807 10.2 14.957 10.2C17.057 10.2 22.807 9.54998 22.807 9.54998C23.957 9.39998 24.257 11 23.107 11.2Z" fill="#1F77B2"/>
</svg>
