<svg width="17" height="16" viewBox="0 0 17 16" fill="none" xmlns="http://www.w3.org/2000/svg">
<g clip-path="url(#clip0_1_455)">
<path d="M11.1742 7.4286C11.1742 6.32741 10.7828 5.38544 10.0001 4.60271C9.21731 3.81997 8.27535 3.4286 7.17416 3.4286C6.07297 3.4286 5.131 3.81997 4.34826 4.60271C3.56553 5.38544 3.17416 6.32741 3.17416 7.4286C3.17416 8.52979 3.56553 9.47175 4.34826 10.2545C5.131 11.0372 6.07297 11.4286 7.17416 11.4286C8.27535 11.4286 9.21731 11.0372 10.0001 10.2545C10.7828 9.47175 11.1742 8.52979 11.1742 7.4286ZM15.7456 14.8572C15.7456 15.1667 15.6325 15.4346 15.4063 15.6607C15.1801 15.8869 14.9123 16 14.6027 16C14.2813 16 14.0134 15.8869 13.7992 15.6607L10.7367 12.6072C9.67118 13.3453 8.48368 13.7143 7.17416 13.7143C6.32297 13.7143 5.50898 13.5491 4.73219 13.2188C3.95541 12.8884 3.28576 12.442 2.72326 11.8795C2.16076 11.317 1.71434 10.6473 1.38398 9.87056C1.05362 9.09378 0.888443 8.27979 0.888443 7.4286C0.888443 6.57741 1.05362 5.76342 1.38398 4.98663C1.71434 4.20985 2.16076 3.5402 2.72326 2.9777C3.28576 2.4152 3.95541 1.96878 4.73219 1.63842C5.50898 1.30806 6.32297 1.14288 7.17416 1.14288C8.02535 1.14288 8.83934 1.30806 9.61612 1.63842C10.3929 1.96878 11.0626 2.4152 11.6251 2.9777C12.1876 3.5402 12.634 4.20985 12.9643 4.98663C13.2947 5.76342 13.4599 6.57741 13.4599 7.4286C13.4599 8.73812 13.0908 9.92562 12.3527 10.9911L15.4152 14.0536C15.6355 14.2738 15.7456 14.5417 15.7456 14.8572Z" fill="#101010"/>
</g>
<defs>
<clipPath id="clip0_1_455">
<rect width="16" height="16" fill="white" transform="translate(0.317017)"/>
</clipPath>
</defs>
</svg>
