<svg width="17" height="16" viewBox="0 0 17 16" fill="none" xmlns="http://www.w3.org/2000/svg">
<g clip-path="url(#clip0_1_449)">
<path d="M6.09971 6.73622H10.2269L10.1648 7.05004H6.15258L6.09971 6.73622ZM7.41999 9.56061H7.59655V8.77533H7.41999V9.56061ZM8.80478 9.56061H8.98133V8.77533H8.80429L8.80478 9.56061ZM13.1163 6.7789V7.91681C13.1163 9.00427 12.6642 9.88607 12.1069 9.88607H4.21097C3.65317 9.88607 3.2016 9.00475 3.2016 7.91681V6.80122C3.2016 5.71376 5.16747 2.79721 5.72381 2.79721H10.4772C11.0379 2.79721 13.1163 5.69144 13.1163 6.7789ZM4.75082 9.11194C4.75082 9.03434 4.72781 8.95847 4.68469 8.89394C4.64157 8.82941 4.58029 8.77912 4.50859 8.74942C4.43688 8.71972 4.35799 8.71195 4.28187 8.72709C4.20575 8.74223 4.13583 8.7796 4.08096 8.83448C4.02608 8.88935 3.98871 8.95927 3.97356 9.03539C3.95842 9.11151 3.96619 9.19041 3.99589 9.26211C4.02559 9.33381 4.07589 9.39509 4.14042 9.43821C4.20495 9.48133 4.28081 9.50434 4.35842 9.50434C4.46241 9.50421 4.56209 9.46281 4.63558 9.38924C4.70906 9.31566 4.75033 9.21593 4.75033 9.11194H4.75082ZM4.79544 5.97131C4.79544 5.97131 3.68519 5.66865 3.5615 6.3414L3.50039 7.00396L5.45752 7.17179C5.45752 7.17179 5.47935 6.18424 4.79544 5.97131ZM9.87138 8.77533H6.56196C6.37619 8.77533 6.37667 8.92569 6.37667 9.11194V9.22399C6.37667 9.31326 6.41214 9.39888 6.47526 9.46201C6.53839 9.52514 6.62401 9.56061 6.71329 9.56061H9.68561C9.7748 9.56048 9.8603 9.52495 9.92332 9.46184C9.98635 9.39873 10.0217 9.31318 10.0217 9.22399V9.11194C10.0217 8.92569 10.0572 8.77533 9.87138 8.77533ZM10.1682 6.3414H6.13027C6.13027 6.3414 5.97312 7.48561 6.67982 7.54139H9.61819C10.3249 7.48561 10.1682 6.3414 10.1682 6.3414ZM12.4193 9.11194C12.4193 9.03434 12.3963 8.95847 12.3532 8.89394C12.31 8.82941 12.2488 8.77912 12.1771 8.74942C12.1054 8.71972 12.0265 8.71195 11.9503 8.72709C11.8742 8.74223 11.8043 8.7796 11.7494 8.83448C11.6946 8.88935 11.6572 8.95927 11.642 9.03539C11.6269 9.11151 11.6347 9.19041 11.6644 9.26211C11.6941 9.33381 11.7444 9.39509 11.8089 9.43821C11.8734 9.48133 11.9493 9.50434 12.0269 9.50434C12.1309 9.50421 12.2307 9.46283 12.3042 9.38927C12.3778 9.31571 12.4192 9.21597 12.4193 9.11194ZM11.522 5.97131C10.8376 6.18424 10.8599 7.1713 10.8599 7.1713L12.8175 7.00396L12.7559 6.34237C12.6327 5.66865 11.522 5.97131 11.522 5.97131ZM11.8406 4.75871C11.8406 4.75871 11.4007 3.36228 10.5703 2.9922L8.11166 2.9437L5.65348 2.9922C4.82309 3.36228 4.38267 4.75871 4.38267 4.75871H11.8406ZM12.5013 4.62727L12.4455 4.86494L12.7598 5.4431C13.5742 5.43971 13.5494 5.15451 13.5494 5.15451C13.2982 4.48515 12.5013 4.62727 12.5013 4.62727ZM2.77622 5.15451C2.77622 5.15451 2.75197 5.43971 3.56587 5.4431L3.88017 4.86494L3.82488 4.62727C3.82488 4.62727 3.02844 4.48515 2.77622 5.15257V5.15451ZM12.1676 9.93215H11.8984V10.6418C11.8983 10.6859 11.9069 10.7297 11.9238 10.7705C11.9407 10.8114 11.9654 10.8485 11.9966 10.8798C12.0279 10.911 12.0649 10.9358 12.1057 10.9527C12.1466 10.9697 12.1903 10.9784 12.2345 10.9784H12.8849C12.9291 10.9784 12.9729 10.9697 13.0138 10.9528C13.0546 10.9358 13.0917 10.911 13.123 10.8798C13.1542 10.8485 13.179 10.8114 13.1959 10.7706C13.2128 10.7297 13.2215 10.686 13.2215 10.6418V8.89222C13.2216 8.84613 13.2121 8.80052 13.1937 8.75828C13.1752 8.71604 13.1482 8.67808 13.1144 8.64679C12.9713 9.39618 12.6012 9.93021 12.1676 9.93021V9.93215ZM3.21276 8.64679C3.17873 8.67799 3.15155 8.71592 3.13293 8.75816C3.11432 8.80041 3.10467 8.84605 3.10459 8.89222V10.6418C3.10459 10.686 3.1133 10.7297 3.13022 10.7706C3.14713 10.8114 3.17193 10.8485 3.20319 10.8798C3.23445 10.911 3.27155 10.9358 3.31239 10.9528C3.35323 10.9697 3.39701 10.9784 3.44121 10.9784H4.09213C4.13634 10.9784 4.18011 10.9697 4.22095 10.9528C4.26179 10.9358 4.2989 10.911 4.33016 10.8798C4.36142 10.8485 4.38621 10.8114 4.40313 10.7706C4.42005 10.7297 4.42875 10.686 4.42875 10.6418V9.93021H4.15907C3.72496 9.93021 3.35488 9.39618 3.21276 8.64679ZM0.205513 14.1277H1.23234V1.3775H0.206968L0.205513 14.1277ZM1.36961 6.74835V9.04549H1.8139V8.50176H2.2354L1.80275 8.11082L1.36961 6.74835ZM1.92255 8.59489V9.256H3.03378L2.94841 8.64679L1.92255 8.59489ZM15.1811 14.1277H16.2084V1.3775H15.1811V14.1277ZM0.206968 14.299V14.6234H16.2084V14.299H0.206968ZM8.20527 13.729H1.67712L1.41472 14.1277H14.9987L14.7368 13.729H8.20527ZM14.178 8.50176H14.5995V9.04549H15.0443V6.74835L14.6112 8.11082L14.178 8.50176ZM13.3806 9.256H14.4919V8.59538L13.466 8.64728L13.3806 9.256Z" fill="#101010"/>
</g>
<defs>
<clipPath id="clip0_1_449">
<rect width="16" height="16" fill="white" transform="translate(0.20697)"/>
</clipPath>
</defs>
</svg>
